<?xml version="1.0" encoding="utf-8"?>
<svg width="20px" height="20px" viewBox="0 0 20 20" version="1.1" xmlns:xlink="http://www.w3.org/1999/xlink" xmlns="http://www.w3.org/2000/svg">
  <g id="Group-3">
    <path d="M0 0L20 0L20 20L0 20L0 0Z" id="Rectangle" fill="none" fill-rule="evenodd" stroke="none" />
    <path d="M13.5532 13.815C9.66857 13.815 6.51929 10.9278 6.51929 7.36821C6.51929 6.0253 6.96679 4.78158 7.73143 3.75C4.69036 4.69515 2.5 7.33122 2.5 10.4381C2.5 14.3385 5.94929 17.5 10.2036 17.5C13.5929 17.5 16.4696 15.4932 17.5 12.7045C16.375 13.4048 15.0161 13.815 13.5532 13.815L13.5532 13.815Z" id="Path" fill="#FFFFFF" fill-rule="evenodd" stroke="none" />
    <path d="M8.23353 4.12218L9.37262 2.58544L7.54593 3.15316C4.28152 4.16772 1.875 7.01964 1.875 10.4381C1.875 14.7337 5.65641 18.125 10.2036 18.125C13.8349 18.125 16.9586 15.9731 18.0863 12.9211L18.7186 11.2098L17.1697 12.1739C16.1433 12.8128 14.8987 13.19 13.5532 13.19C9.9614 13.19 7.14429 10.5325 7.14429 7.36821C7.14429 6.16798 7.54339 5.05325 8.23353 4.12218L8.23353 4.12218ZM3.125 10.4381C3.125 8.21198 4.37708 6.22374 6.31015 5.06403C6.04111 5.78495 5.89429 6.55987 5.89429 7.36821C5.89429 11.3231 9.37574 14.44 13.5532 14.44C14.4295 14.44 15.2728 14.3037 16.0589 14.0524C14.7927 15.7454 12.6551 16.875 10.2036 16.875C6.24216 16.875 3.125 13.9432 3.125 10.4381L3.125 10.4381Z" id="Path" fill="#111517" fill-rule="evenodd" stroke="none" />
  </g>
</svg>