<?xml version="1.0" encoding="utf-8"?>
<svg width="17.5px" height="17.5px" viewBox="0 0 17.5 17.5" version="1.1" xmlns:xlink="http://www.w3.org/1999/xlink" xmlns="http://www.w3.org/2000/svg">
  <g id="search">
    <path d="M11.7 11L12.5 11L17.5 16L16 17.5L11 12.5L11 11.7L10.7 11.4C9.6 12.4 8.1 13 6.5 13C2.9 13 0 10.1 0 6.5C0 2.9 2.9 0 6.5 0C10.1 0 13 2.9 13 6.5C13 8.1 12.4 9.6 11.4 10.7L11.7 11ZM2 6.5C2 9 4 11 6.5 11C9 11 11 9 11 6.5C11 4 9 2 6.5 2C4 2 2 4 2 6.5Z" id="icon-search-black" fill="#848484" fill-rule="evenodd" stroke="none" />
  </g>
</svg>